<svg width="33" height="32" viewBox="0 0 33 32" fill="none" xmlns="http://www.w3.org/2000/svg">
<g clip-path="url(#clip0_105_1067)">
<path d="M20.8808 18.167C21.0193 18.0748 21.1786 18.0187 21.3442 18.0036C21.5099 17.9886 21.6767 18.0151 21.8295 18.0807L27.7245 20.722C27.9232 20.8069 28.089 20.9539 28.1972 21.1409C28.3053 21.3279 28.35 21.5449 28.3245 21.7595C28.1303 23.2108 27.4156 24.5422 26.3134 25.506C25.2111 26.4699 23.7963 27.0006 22.332 26.9995C17.8234 26.9995 13.4993 25.2084 10.3112 22.0203C7.1231 18.8322 5.33203 14.5082 5.33203 9.99948C5.33091 8.53524 5.86163 7.12042 6.82548 6.01815C7.78934 4.91588 9.12072 4.20119 10.572 4.00698C10.7866 3.9815 11.0036 4.02618 11.1906 4.13434C11.3777 4.2425 11.5246 4.40832 11.6095 4.60698L14.2508 10.507C14.3157 10.6585 14.3421 10.8237 14.3277 10.988C14.3133 11.1522 14.2586 11.3103 14.1683 11.4482L11.497 14.6245C11.4023 14.7675 11.3462 14.9326 11.3344 15.1037C11.3226 15.2748 11.3554 15.4461 11.4295 15.6007C12.4633 17.717 14.6508 19.8782 16.7733 20.902C16.9288 20.9758 17.1008 21.0079 17.2724 20.9949C17.4441 20.982 17.6094 20.9246 17.752 20.8282L20.8808 18.167Z" stroke="#323460" stroke-width="2" stroke-linecap="round" stroke-linejoin="round"/>
</g>
<defs>
<clipPath id="clip0_105_1067">
<rect width="32" height="32" fill="white" transform="translate(0.332031)"/>
</clipPath>
</defs>
</svg>
