<svg width="33" height="32" viewBox="0 0 33 32" fill="none" xmlns="http://www.w3.org/2000/svg">
<g clip-path="url(#clip0_105_1061)">
<path d="M10.668 14C12.8771 14 14.668 12.2091 14.668 10C14.668 7.79086 12.8771 6 10.668 6C8.45883 6 6.66797 7.79086 6.66797 10C6.66797 12.2091 8.45883 14 10.668 14Z" stroke="#323460" stroke-width="2" stroke-linecap="round" stroke-linejoin="round"/>
<path d="M22.668 14C24.8771 14 26.668 12.2091 26.668 10C26.668 7.79086 24.8771 6 22.668 6C20.4588 6 18.668 7.79086 18.668 10C18.668 12.2091 20.4588 14 22.668 14Z" stroke="#323460" stroke-width="2" stroke-linecap="round" stroke-linejoin="round"/>
<path d="M10.668 26C12.8771 26 14.668 24.2091 14.668 22C14.668 19.7909 12.8771 18 10.668 18C8.45883 18 6.66797 19.7909 6.66797 22C6.66797 24.2091 8.45883 26 10.668 26Z" stroke="#323460" stroke-width="2" stroke-linecap="round" stroke-linejoin="round"/>
<path d="M22.668 26C24.8771 26 26.668 24.2091 26.668 22C26.668 19.7909 24.8771 18 22.668 18C20.4588 18 18.668 19.7909 18.668 22C18.668 24.2091 20.4588 26 22.668 26Z" stroke="#323460" stroke-width="2" stroke-linecap="round" stroke-linejoin="round"/>
</g>
<defs>
<clipPath id="clip0_105_1061">
<rect width="32" height="32" fill="white" transform="translate(0.667969)"/>
</clipPath>
</defs>
</svg>
