<?xml version="1.0" encoding="UTF-8" standalone="no"?>
<!-- Created with Inkscape (http://www.inkscape.org/) -->

<svg
   width="31.75mm"
   height="31.750013mm"
   viewBox="0 0 31.75 31.750013"
   version="1.1"
   id="svg915"
   inkscape:version="1.1.2 (0a00cf5339, 2022-02-04)"
   sodipodi:docname="favicon.svg"
   xmlns:inkscape="http://www.inkscape.org/namespaces/inkscape"
   xmlns:sodipodi="http://sodipodi.sourceforge.net/DTD/sodipodi-0.dtd"
   xmlns="http://www.w3.org/2000/svg"
   xmlns:svg="http://www.w3.org/2000/svg">
  <sodipodi:namedview
     id="namedview917"
     pagecolor="#ffffff"
     bordercolor="#666666"
     borderopacity="1.0"
     inkscape:pageshadow="2"
     inkscape:pageopacity="0.0"
     inkscape:pagecheckerboard="0"
     inkscape:document-units="mm"
     showgrid="false"
     fit-margin-top="0"
     fit-margin-left="0"
     fit-margin-right="0"
     fit-margin-bottom="0"
     inkscape:zoom="0.73940797"
     inkscape:cx="188.66445"
     inkscape:cy="231.2661"
     inkscape:window-width="1920"
     inkscape:window-height="1008"
     inkscape:window-x="0"
     inkscape:window-y="0"
     inkscape:window-maximized="1"
     inkscape:current-layer="layer1" />
  <defs
     id="defs912" />
  <g
     inkscape:label="Слой 1"
     inkscape:groupmode="layer"
     id="layer1"
     transform="translate(-55.13693,-87.341747)">
    <path
       d="m 71.011929,87.341747 c 8.767461,0 15.875001,7.10754 15.875001,15.875003 0,4.88368 -2.206089,9.2516 -5.67508,12.16371 V 98.990055 l -2.032882,-1.974853 v 19.816448 c -0.463341,0.27856 -0.942123,0.53424 -1.434646,0.76523 V 95.621912 l -2.032881,-1.974729 v 24.737107 c -0.469292,0.14523 -0.947833,0.26943 -1.434646,0.37124 V 92.253532 l -2.032867,-1.974745 v 28.765873 c -0.406528,0.0313 -0.81744,0.0471 -1.231999,0.0471 -0.651267,0 -1.2933,-0.0401 -1.924003,-0.11641 l 2.041997,-1.50982 v -3.01903 l -5.171243,3.82357 c -0.892964,-0.2996 -1.750539,-0.67645 -2.564575,-1.12276 l 7.735818,-5.71971 v -3.01903 l -9.893985,7.31553 c -3.712388,-2.90566 -6.099008,-7.42758 -6.099008,-12.50734 0,-8.767463 7.10754,-15.875003 15.874999,-15.875003 z m -10.19992,13.601523 v -3.019046 l 10.317914,-7.62888 v 3.019027 z m 0,6.03793 v -3.01902 l 10.317914,-7.628904 v 3.019029 z m 0,6.03721 v -3.01902 l 10.317914,-7.6289 v 3.01902 z"
       style="fill:#6C99C3;fill-rule:evenodd;stroke-width:0.264583"
       id="path843" />
  </g>
</svg>
