<svg width="136" height="42" viewBox="0 0 136 42" fill="none" xmlns="http://www.w3.org/2000/svg">
<path d="M39.5436 27.8204C38.489 27.8204 37.5375 27.6239 36.689 27.2305C35.8405 26.8314 35.1467 26.2708 34.6072 25.5489C34.068 24.827 33.7256 23.9789 33.5801 23.0045H36.4072C36.5771 23.7968 36.9315 24.3984 37.4709 24.8094C38.0102 25.2202 38.689 25.4256 39.5071 25.4256C40.5254 25.4256 41.3434 25.1292 41.9617 24.5365C42.5799 23.9437 42.9616 23.1132 43.1071 22.0448H38.2073V19.8525H43.0708C42.901 18.8488 42.5102 18.0681 41.8981 17.5105C41.2919 16.9529 40.495 16.6741 39.5071 16.6741C38.6829 16.6741 38.0011 16.8825 37.4619 17.2992C36.9224 17.7101 36.5709 18.3146 36.4072 19.1129H33.5801C33.7256 18.1385 34.068 17.2904 34.6072 16.5684C35.1467 15.8406 35.8405 15.2771 36.689 14.878C37.5375 14.4789 38.489 14.2793 39.5436 14.2793C40.786 14.2793 41.892 14.5552 42.8617 15.1069C43.8314 15.6528 44.592 16.4334 45.1435 17.4489C45.7009 18.4585 45.9797 19.6617 45.9797 21.0587C45.9797 22.444 45.7009 23.6442 45.1435 24.6597C44.592 25.6692 43.8314 26.4498 42.8617 27.0016C41.892 27.5476 40.786 27.8204 39.5436 27.8204Z" fill="#323460"/>
<path d="M46.8269 27.609V14.4904H52.1722C53.1844 14.4904 54.0601 14.6665 54.7994 15.0187C55.545 15.365 56.1176 15.861 56.5176 16.5066C56.9236 17.1523 57.1266 17.9153 57.1266 18.7958C57.1266 19.6762 56.9206 20.4393 56.5086 21.0849C56.1024 21.7247 55.5268 22.2206 54.7812 22.5729C54.0358 22.925 53.154 23.1011 52.1359 23.1011H49.6268V27.609H46.8269ZM49.6268 20.8296H51.9904C52.7298 20.8296 53.3147 20.6476 53.745 20.2837C54.1752 19.9139 54.3904 19.418 54.3904 18.7958C54.3904 18.1677 54.1752 17.6718 53.745 17.3078C53.3147 16.9439 52.7298 16.762 51.9904 16.762H49.6268V20.8296Z" fill="#323460"/>
<path d="M69.3252 27.609H66.5344V21.5251C66.5344 21.2434 66.5373 20.8355 66.5435 20.3013C66.5496 19.7672 66.5678 19.1568 66.598 18.47C66.2102 19.1392 65.8526 19.7437 65.5254 20.2837C65.2041 20.8179 64.9466 21.2346 64.7525 21.534L60.7981 27.609H57.8438V14.4904H60.6437V20.9793C60.6437 21.2552 60.6376 21.6396 60.6255 22.1327C60.6194 22.6198 60.6074 23.1187 60.589 23.6293C60.8619 23.1598 61.1284 22.6991 61.3891 22.247C61.6556 21.7951 61.8679 21.4459 62.0255 21.1994L66.3798 14.4904H69.3252V27.609Z" fill="#323460"/>
<path d="M76.6084 27.8204C75.366 27.8204 74.2601 27.5476 73.2904 27.0016C72.3207 26.4498 71.5571 25.6692 70.9995 24.6597C70.448 23.6442 70.1724 22.444 70.1724 21.0587C70.1724 19.6617 70.448 18.4585 70.9995 17.4489C71.5571 16.4334 72.3207 15.6528 73.2904 15.1069C74.2601 14.5552 75.366 14.2793 76.6084 14.2793C77.6692 14.2793 78.6205 14.4789 79.4631 14.878C80.3115 15.2771 81.0054 15.8406 81.5448 16.5684C82.0841 17.2904 82.4265 18.1385 82.572 19.1129H79.7448C79.5811 18.3381 79.2235 17.7394 78.672 17.3168C78.1267 16.8883 77.451 16.6741 76.645 16.6741C75.4934 16.6741 74.5966 17.0703 73.954 17.8627C73.3117 18.6492 72.9905 19.7145 72.9905 21.0587C72.9905 22.391 73.3117 23.4535 73.954 24.2458C74.5966 25.0324 75.4934 25.4256 76.645 25.4256C77.4449 25.4256 78.1176 25.2145 78.663 24.7918C79.2145 24.3692 79.5782 23.7733 79.7539 23.0045H82.572C82.4265 23.9789 82.0841 24.827 81.5448 25.5489C81.0054 26.2708 80.3115 26.8314 79.4631 27.2305C78.6205 27.6239 77.6692 27.8204 76.6084 27.8204Z" fill="#323460"/>
<path d="M82.7896 16.8148V14.4904H93.7985V16.8148H89.6986V27.609H86.8986V16.8148H82.7896Z" fill="#323460"/>
<path d="M91.7371 27.609L96.4914 14.4904H100.091L104.846 27.609H101.746L100.801 24.7475H95.737L94.7552 27.609H91.7371ZM96.4914 22.5817H100.073L99.6187 21.2258C99.4067 20.5567 99.1944 19.8758 98.9823 19.1832C98.7703 18.4906 98.543 17.7363 98.3005 16.9205C98.058 17.7363 97.8278 18.4906 97.6096 19.1832C97.3914 19.8758 97.1733 20.5567 96.9551 21.2258L96.4914 22.5817Z" fill="#323460"/>
<path d="M105.209 27.609V14.4904H110.636C112.09 14.4904 113.212 14.8015 113.999 15.4237C114.793 16.04 115.19 16.8529 115.19 17.8625C115.19 18.6197 114.972 19.2448 114.536 19.7379C114.099 20.2309 113.509 20.5684 112.763 20.7504V20.768C113.587 20.8384 114.281 21.1466 114.845 21.6924C115.409 22.2383 115.69 22.978 115.69 23.9112C115.69 25.0087 115.284 25.901 114.472 26.5878C113.66 27.2686 112.484 27.609 110.945 27.609H105.209ZM107.945 25.4784H110.554C111.275 25.4784 111.836 25.3287 112.236 25.0294C112.636 24.7299 112.836 24.3072 112.836 23.7615C112.836 23.2157 112.639 22.7843 112.245 22.4672C111.851 22.1444 111.303 21.983 110.599 21.983H107.945V25.4784ZM107.945 19.9404H110.427C111.045 19.9404 111.53 19.7907 111.881 19.4913C112.233 19.192 112.409 18.7899 112.409 18.2852C112.409 17.7745 112.233 17.3695 111.881 17.0701C111.53 16.7708 111.045 16.6211 110.427 16.6211H107.945V19.9404Z" fill="#323460"/>
<path d="M127.946 27.609H125.155V21.5251C125.155 21.2434 125.158 20.8355 125.164 20.3013C125.171 19.7672 125.189 19.1568 125.219 18.47C124.831 19.1392 124.474 19.7437 124.146 20.2837C123.825 20.8179 123.567 21.2346 123.374 21.534L119.419 27.609H116.465V14.4904H119.265V20.9793C119.265 21.2552 119.259 21.6396 119.247 22.1327C119.24 22.6198 119.228 23.1187 119.21 23.6293C119.483 23.1598 119.749 22.6991 120.01 22.247C120.277 21.7952 120.489 21.4459 120.646 21.1994L125.001 14.4904H127.946V27.609Z" fill="#323460"/>
<ellipse cx="12.5926" cy="21.0004" rx="12.5926" ry="12.6" fill="#323460"/>
<mask id="mask0_328_11665" style="mask-type:alpha" maskUnits="userSpaceOnUse" x="0" y="8" width="26" height="26">
<ellipse cx="12.5926" cy="21.0004" rx="12.5926" ry="12.6" fill="#FF4D1C"/>
</mask>
<g mask="url(#mask0_328_11665)">
<path d="M5.03711 17.7331L13.4322 11.7598V14.3198L5.03711 20.2931V17.7331Z" fill="white"/>
<path d="M5.03711 22.4264L13.4322 16.4531V19.0131L5.03711 24.9864V22.4264Z" fill="white"/>
<path d="M5.03711 26.6931L13.4322 20.7198V23.2798L5.03711 29.2531V26.6931Z" fill="white"/>
<path d="M5.03711 31.0798L13.4322 25.1998V27.7198L5.03711 33.5998V31.0798Z" fill="white"/>
<path d="M5.03711 35.6998L13.4322 29.8198V32.3398L5.03711 38.2198V35.6998Z" fill="white"/>
<path d="M14.2715 11.7598L15.9505 13.4398V34.4398H14.2715V11.7598Z" fill="white"/>
<path d="M16.79 14.2798L18.469 15.9598V36.9598H16.79V14.2798Z" fill="white"/>
<path d="M19.3085 16.7998L20.9875 18.4798V39.4798H19.3085V16.7998Z" fill="white"/>
</g>
</svg>
