<svg width="28" height="28" viewBox="0 0 28 28" fill="none" xmlns="http://www.w3.org/2000/svg">
<g clip-path="url(#clip0_328_5632)">
<path d="M14 10.5C14.9665 10.5 15.75 9.7165 15.75 8.75C15.75 7.7835 14.9665 7 14 7C13.0335 7 12.25 7.7835 12.25 8.75C12.25 9.7165 13.0335 10.5 14 10.5Z" fill="#6C99C3"/>
<path d="M20.125 8.75C20.125 14.875 14 18.375 14 18.375C14 18.375 7.875 14.875 7.875 8.75C7.875 7.12555 8.52031 5.56763 9.66897 4.41897C10.8176 3.27031 12.3755 2.625 14 2.625C15.6245 2.625 17.1824 3.27031 18.331 4.41897C19.4797 5.56763 20.125 7.12555 20.125 8.75Z" stroke="#6C99C3" stroke-linecap="round" stroke-linejoin="round"/>
<path d="M21.875 16.9688C24.0319 17.765 25.375 18.885 25.375 20.1253C25.375 22.5414 20.2825 24.5003 14 24.5003C7.7175 24.5003 2.625 22.5414 2.625 20.1253C2.625 18.885 3.96813 17.765 6.125 16.9688" stroke="#6C99C3" stroke-linecap="round" stroke-linejoin="round"/>
</g>
<defs>
<clipPath id="clip0_328_5632">
<rect width="28" height="28" fill="white"/>
</clipPath>
</defs>
</svg>
