<svg width="68" height="68" viewBox="0 0 68 68" fill="none" xmlns="http://www.w3.org/2000/svg">
<g clip-path="url(#clip0_144_3578)">
<path d="M33.9993 50.2272L48.5343 59.1655C48.9114 59.3944 49.348 59.5064 49.7887 59.4873C50.2295 59.4682 50.6547 59.3189 51.0106 59.0582C51.3665 58.7975 51.6372 58.4372 51.7883 58.0227C51.9395 57.6083 51.9644 57.1583 51.8599 56.7297L47.9074 40.0511L60.8434 28.8948C61.1732 28.6052 61.411 28.2254 61.5274 27.8022C61.6438 27.379 61.6337 26.931 61.4984 26.5134C61.3631 26.0959 61.1084 25.7271 60.7659 25.4526C60.4234 25.1782 60.008 25.01 59.571 24.9689L42.5949 23.5877L36.0552 7.7564C35.8885 7.34797 35.6039 6.99846 35.2378 6.75242C34.8716 6.50639 34.4404 6.375 33.9993 6.375C33.5582 6.375 33.127 6.50639 32.7608 6.75242C32.3947 6.99846 32.1101 7.34797 31.9434 7.7564L25.4037 23.5877L8.42759 24.9689C7.98762 25.0075 7.56879 25.175 7.22343 25.4502C6.87806 25.7255 6.62148 26.0965 6.48573 26.5168C6.34998 26.9371 6.34109 27.388 6.46016 27.8133C6.57924 28.2386 6.821 28.6194 7.15524 28.9081L20.0912 40.0644L16.1387 56.7297C16.0342 57.1583 16.0591 57.6083 16.2103 58.0227C16.3615 58.4372 16.6321 58.7975 16.988 59.0582C17.3439 59.3189 17.7691 59.4682 18.2099 59.4873C18.6507 59.5064 19.0872 59.3944 19.4643 59.1655L33.9993 50.2272Z" stroke="#6C99C3" stroke-width="2" stroke-linecap="round" stroke-linejoin="round"/>
</g>
<defs>
<clipPath id="clip0_144_3578">
<rect width="68" height="68" fill="white"/>
</clipPath>
</defs>
</svg>
